# xmcd
#
# Track frame offsets:
#	150
#	12612
#	39917
#	118501
#	130054
#	154667
#	207163
#	244495
#	275651
#
# Disc length: 3961 seconds
#
# Revision: 1
# Processed by: cddbd v1.5.2PL0 Copyright (c) Steve Scherf et al.
# Submitted via: audiograbber 1.83.01
#
DISCID=7b0f7709
DTITLE=Grateful Dead - 79-12-31 Oakland Auditorium Arena, Oakland CA
DYEAR=1900
DGENRE=
TTITLE0=Tuning
TTITLE1=Jack Straw
TTITLE2=Franklin's Tower
TTITLE3=Mama Tried
TTITLE4=Mexicali Blues
TTITLE5=Tennessee Jed
TTITLE6=Looks Like Rain
TTITLE7=Alabama Getaway
TTITLE8=Promised Land
EXTD=
EXTT0=
EXTT1=
EXTT2=
EXTT3=
EXTT4=
EXTT5=
EXTT6=
EXTT7=
EXTT8=
PLAYORDER=
